<?xml version="1.0" encoding="utf-8"?>
<!-- Generator: Adobe Illustrator 19.2.0, SVG Export Plug-In . SVG Version: 6.00 Build 0)  -->
<svg version="1.1" id="Layer_1" xmlns="http://www.w3.org/2000/svg" xmlns:xlink="http://www.w3.org/1999/xlink" x="0px" y="0px"
	 viewBox="0 0 1772 1270" style="enable-background:new 0 0 1772 1270;" xml:space="preserve">
<style type="text/css">
	.st0{fill:#231F20;}
</style>
<title>gofaster_logo</title>
<path class="st0" d="M705.8,560.8l207.8-334.4c32.9-52.9-5.2-121.4-67.5-121.4H411.3c-62.5,0-100.5,68.7-67.3,121.7l68,108.6
	c14.6,23.3,16.1,52.4,4.1,77.1L193.3,868.2c-25.8,52.8,12.6,114.3,71.3,114.4l507.6,0.4c27.4,0,52.8,14.1,67.3,37.4l82,131.3
	c31.1,49.8,103.6,49.8,134.8,0l217.5-347.8c33.1-52.9-5-121.6-67.4-121.6H773.3C710.9,682.3,672.9,613.8,705.8,560.8z"/>
<path class="st0" d="M990.4,256.4l217.5,347.8c31.1,49.8,103.7,49.8,134.8,0l217.1-347.8c33-52.9-5-121.6-67.4-121.6h-434.6
	C995.4,134.8,957.3,203.4,990.4,256.4z"/>
</svg>
